<svg xmlns="http://www.w3.org/2000/svg" xmlns:xlink="http://www.w3.org/1999/xlink" viewBox="0,0,256,256" width="48px" height="48px" fill-rule="nonzero"><g fill="none" fill-rule="nonzero" stroke="none" stroke-width="1" stroke-linecap="butt" stroke-linejoin="miter" stroke-miterlimit="10" stroke-dasharray="" stroke-dashoffset="0" font-family="none" font-weight="none" font-size="none" text-anchor="none" style="mix-blend-mode: normal"><g transform="scale(5.33333,5.33333)"><path d="M42,37c0,2.762 -2.238,5 -5,5h-26c-2.762,0 -5,-2.238 -5,-5v-26c0,-2.762 2.238,-5 5,-5h26c2.762,0 5,2.238 5,5z" fill="#885cfa"></path><path d="M32,38h-16c-1.105,0 -2,-0.895 -2,-2v-24c0,-1.105 0.895,-2 2,-2h16c1.105,0 2,0.895 2,2v24c0,1.105 -0.895,2 -2,2z" fill="#1f212b"></path><path d="M30,18h-12c-0.552,0 -1,-0.448 -1,-1v-4c0,-0.552 0.448,-1 1,-1h12c0.552,0 1,0.448 1,1v4c0,0.552 -0.448,1 -1,1z" fill="#757575"></path><circle cx="18" cy="22" r="2" fill="#e0e0e0"></circle><circle cx="24" cy="22" r="2" fill="#e0e0e0"></circle><circle cx="30" cy="22" r="2" fill="#ffab40"></circle><circle cx="18" cy="28" r="2" fill="#e0e0e0"></circle><circle cx="24" cy="28" r="2" fill="#e0e0e0"></circle><circle cx="30" cy="28" r="2" fill="#ffab40"></circle><circle cx="30" cy="34" r="2" fill="#ffab40"></circle><path d="M24,36h-6c-1.105,0 -2,-0.895 -2,-2v0c0,-1.105 0.895,-2 2,-2h6c1.105,0 2,0.895 2,2v0c0,1.105 -0.895,2 -2,2z" fill="#e0e0e0"></path></g></g></svg>